<?xml version="1.0" standalone="no"?><!DOCTYPE svg PUBLIC "-//W3C//DTD SVG 1.1//EN" "http://www.w3.org/Graphics/SVG/1.1/DTD/svg11.dtd"><svg t="1584773907227" class="icon" viewBox="0 0 1144 1024" version="1.1" xmlns="http://www.w3.org/2000/svg" p-id="16574" id="mx_n_1584773907229" xmlns:xlink="http://www.w3.org/1999/xlink" width="71.5" height="64"><defs><style type="text/css"></style></defs><path d="M36.571429 438.857143v215.771428l7.314285 307.2 987.428572 18.285715 91.428571-43.885715L1111.771429 256l-146.285715-219.428571H175.542857L47.542857 193.828571z" fill="#FFFFFF" p-id="16575"></path><path d="M665.6 486.4h-197.485714c-7.314286 0-10.971429-7.314286-7.314286-14.628571 10.971429-25.6 32.914286-84.114286 32.914286-87.771429 0 0-3.657143 0-7.314286 3.657143-14.628571 7.314286-29.257143 18.285714-47.542857 29.257143l-7.314286 3.657143c-25.6 14.628571-58.514286 32.914286-84.114286 54.857142-29.257143 21.942857-43.885714 40.228571-43.885714 54.857143 0 10.971429 7.314286 21.942857 21.942857 32.914286 40.228571 29.257143 149.942857 87.771429 175.542857 98.742857 0 0-25.6-62.171429-36.571428-87.771428-3.657143-7.314286 0-14.628571 7.314286-14.628572h197.485714c36.571429 3.657143 102.4 32.914286 102.4 102.4 0 62.171429-51.2 102.4-102.4 102.4h-234.057143c-21.942857 0-36.571429 18.285714-36.571429 36.571429 0 21.942857 18.285714 36.571429 36.571429 36.571428h234.057143c7.314286 0 84.114286 0 135.314286-51.2 29.257143-29.257143 43.885714-73.142857 43.885714-128 0 0 3.657143-76.8-47.542857-131.657143-36.571429-25.6-80.457143-40.228571-135.314286-40.228571z m0 0" fill="#ffea54" p-id="16576"></path><path d="M1144.685714 277.942857c0-36.571429-10.971429-69.485714-29.257143-98.742857l-80.457142-131.657143C1016.685714 18.285714 983.771429 0 950.857143 0H193.828571C160.914286 0 128 18.285714 109.714286 43.885714L29.257143 175.542857C10.971429 208.457143 0 241.371429 0 277.942857v138.971429c0 21.942857 18.285714 40.228571 40.228571 40.228571s40.228571-18.285714 40.228572-40.228571V299.885714h987.428571v592.457143c0 21.942857-18.285714 36.571429-36.571428 36.571429h-914.285715c-21.942857 0-36.571429-18.285714-36.571428-36.571429v-277.942857c0-21.942857-18.285714-40.228571-40.228572-40.228571-21.942857 0-40.228571 18.285714-40.228571 40.228571V914.285714c0 51.2 43.885714 95.085714 95.085714 95.085715h954.514286c51.2 0 95.085714-43.885714 95.085714-95.085715V277.942857zM91.428571 223.085714l80.457143-128c7.314286-10.971429 18.285714-18.285714 32.914286-18.285714h735.085714c14.628571 0 25.6 7.314286 32.914286 18.285714l80.457143 128H91.428571z m0 0" fill="#87daff" p-id="16577"></path></svg>