<svg t="1577623561981" class="icon" viewBox="0 0 1024 1024" version="1.1" xmlns="http://www.w3.org/2000/svg" p-id="1226" width="64" height="64"><path d="M511.8 961.6c-60.6 0-119.5-11.9-174.9-35.3-53.5-22.6-101.5-55-142.8-96.3s-73.6-89.3-96.3-142.8C74.4 631.8 62.5 573 62.5 512.3s12-119.3 35.4-174.7c22.6-53.5 55-101.5 96.3-142.8 41.2-41.2 89.3-73.6 142.8-96.3 55.4-23.4 114.2-35.3 174.9-35.3 60.6 0 119.5 11.9 174.9 35.3 53.5 22.6 101.5 55 142.8 96.3 41.2 41.2 73.6 89.3 96.3 142.8C949.1 393 961 451.8 961 512.4s-11.9 119.5-35.3 174.9c-22.6 53.5-55 101.5-96.3 142.8s-89.3 73.6-142.8 96.3c-55.3 23.4-114.2 35.2-174.8 35.2z m0-828.4c-209.1 0-379.2 170.1-379.2 379.2s170.1 379.2 379.2 379.2S891 721.5 891 512.4 720.9 133.2 511.8 133.2z" fill="#F74642" p-id="1227"></path><path d="M349.4 717.7c-10.2 0-20.4-3.9-28.2-11.7-15.7-15.6-15.7-40.9-0.1-56.6l315.6-317c15.6-15.7 40.9-15.7 56.6-0.1 15.7 15.6 15.7 40.9 0.1 56.6l-315.6 317c-7.8 7.9-18.1 11.8-28.4 11.8z" fill="#FF6965" p-id="1228"></path><path d="M676.1 718c-10.3 0-20.5-3.9-28.3-11.8l-315.6-317c-15.6-15.7-15.5-41 0.1-56.6 15.7-15.6 41-15.5 56.6 0.1l315.6 317c15.6 15.7 15.5 41-0.1 56.6-7.9 7.8-18.1 11.7-28.3 11.7z" fill="#FF6965" p-id="1229"></path></svg>