<svg t="1578822226374" class="icon" viewBox="0 0 1316 1024" version="1.1" xmlns="http://www.w3.org/2000/svg" p-id="3017" width="64" height="64"><path d="M190.171429 477.866667c39.009524 102.4 136.533333 190.171429 302.323809 253.561904s351.085714 82.895238 565.638095 43.885715c-9.752381 73.142857-78.019048 131.657143-151.161904 131.657143H433.980952c-136.533333 0-243.809524-107.27619-243.809523-243.809524V477.866667z" fill="#C7CFFF" p-id="3018"></path><path d="M726.552381 331.580952h-390.095238c-29.257143 0-48.761905-19.504762-48.761905-48.761904s19.504762-48.761905 48.761905-48.761905h390.095238c29.257143 0 48.761905 19.504762 48.761905 48.761905s-19.504762 48.761905-48.761905 48.761904z m-219.428571 195.047619H336.457143c-29.257143 0-48.761905-19.504762-48.761905-48.761904s19.504762-48.761905 48.761905-48.761905h170.666667c29.257143 0 48.761905 19.504762 48.761904 48.761905s-19.504762 48.761905-48.761904 48.761904z m-424.228572-341.333333c29.257143 0 53.638095 19.504762 58.514286 48.761905l126.780952 516.87619c9.752381 43.885714 48.761905 73.142857 92.647619 73.142857H731.428571c29.257143 0 48.761905 19.504762 48.761905 48.761905s-19.504762 48.761905-48.761905 48.761905H351.085714c-92.647619 0-170.666667-63.390476-190.171428-156.038095L48.761905 234.057143c-4.87619-19.504762 9.752381-43.885714 29.257143-48.761905h4.87619z m1219.047619-97.523809c0 24.380952-19.504762 39.009524-39.009524 39.009523-34.133333 0-63.390476 4.87619-87.771428 19.504762-29.257143 24.380952-48.761905 63.390476-63.390476 126.780953l-58.514286 341.333333c-4.87619 29.257143-29.257143 43.885714-58.514286 39.009524-24.380952-4.87619-43.885714-29.257143-39.009524-53.638095l58.514286-331.580953c9.752381-82.895238 39.009524-141.409524 87.771429-185.295238 39.009524-34.133333 87.771429-48.761905 151.161904-48.761905 24.380952 4.87619 48.761905 29.257143 48.761905 53.638096zM970.361905 975.238095c-82.895238 0-146.285714-63.390476-146.285715-146.285714s63.390476-146.285714 146.285715-146.285714 146.285714 63.390476 146.285714 146.285714-68.266667 146.285714-146.285714 146.285714z m0-97.523809c29.257143 0 48.761905-19.504762 48.761905-48.761905s-19.504762-48.761905-48.761905-48.761905-48.761905 19.504762-48.761905 48.761905 19.504762 48.761905 48.761905 48.761905z" fill="#3C8CF5" p-id="3019"></path><path d="M936.228571 355.961905c19.504762 19.504762 19.504762 48.761905 0 68.266666L877.714286 482.742857c0-19.504762-9.752381-34.133333-19.504762-48.761905-14.628571-14.628571-29.257143-19.504762-48.761905-19.504762l53.638095-53.638095c24.380952-24.380952 53.638095-24.380952 73.142857-4.87619z m-141.409523 73.142857c19.504762 0 34.133333 4.87619 48.761904 19.504762 14.628571 14.628571 19.504762 29.257143 24.380953 48.761905L633.904762 746.057143l-68.266667 24.380952c-9.752381 4.87619-19.504762 0-24.380952-9.752381v-14.628571l19.504762-68.266667 234.057143-248.685714z" fill="#F4B300" p-id="3020"></path></svg>