<svg t="1578822353537" class="icon" viewBox="0 0 1024 1024" version="1.1" xmlns="http://www.w3.org/2000/svg" p-id="5585" width="64" height="64"><path d="M977.6 208H48L134.4 22.4h747.2zM859.2 1024H176c-36.8 0-65.6-30.4-65.6-65.6V502.4h64v456c0 1.6 1.6 1.6 1.6 1.6h683.2c1.6 0 1.6-1.6 1.6-1.6V502.4h64v456c0 35.2-28.8 65.6-65.6 65.6z" fill="#ffdd00" p-id="5586"></path><path d="M516.8 697.6zM171.2 571.2v387.2h691.2V512l-691.2 59.2z m467.2 158.4v48h-97.6v46.4h-48v-46.4h-97.6v-48h97.6v-24l-97.6-115.2L432 560l84.8 100.8 88-99.2 36.8 32-99.2 113.6v24h96z" fill="#ffffb1" p-id="5587"></path><path d="M1014.4 345.6c0 67.2-54.4 121.6-121.6 121.6-60.8 0-110.4-43.2-120-100.8H752c-9.6 57.6-59.2 100.8-120 100.8s-110.4-43.2-120-100.8h-9.6c-9.6 57.6-59.2 100.8-120 100.8s-110.4-43.2-120-100.8h-14.4c-9.6 57.6-59.2 100.8-120 100.8-67.2 0-121.6-54.4-121.6-121.6 0-35.2 14.4-67.2 38.4-88 3.2-3.2 8-6.4 11.2-9.6H960c19.2 12.8 33.6 32 41.6 54.4 9.6 12.8 12.8 27.2 12.8 43.2z" fill="#ffdd00" p-id="5588"></path><path d="M48 246.4h11.2c-3.2 3.2-8 6.4-11.2 9.6v-9.6zM516.8 697.6zM516.8 697.6z" fill="#ffdd00" p-id="5589"></path></svg>