<svg t="1578821505908" class="icon" viewBox="0 0 1074 1024" version="1.1" xmlns="http://www.w3.org/2000/svg" p-id="2133" width="64" height="64"><path d="M1032 293.6l-486.4-288.8c-6.4-3.2-12.8-4.8-19.2-4.8-6.4 0-13.6 1.6-19.2 4.8l-486.4 288.8c-19.2 10.4-25.6 35.2-15.2 54.4 10.4 19.2 34.4 25.6 53.6 15.2l455.2-271.2c8-4.8 17.6-4.8 24.8 0l455.2 271.2c19.2 10.4 43.2 4 53.6-15.2 9.6-19.2 2.4-43.2-16-54.4z" fill="#FD7721" p-id="2134"></path><path d="M905.6 371.2l-349.6-205.6c-18.4-11.2-41.6-11.2-60 0l-349.6 205.6c-18.4 10.4-29.6 30.4-29.6 52v467.2c0 33.6 26.4 60 60 60h699.2c32.8 0 60-27.2 60-60v-467.2c-0.8-21.6-12-41.6-30.4-52z" fill="#FD7721" p-id="2135"></path><path d="M384 845.6c0 8-6.4 15.2-15.2 15.2H232c-8 0-15.2-6.4-15.2-15.2v-138.4c0-8 6.4-15.2 15.2-15.2h136.8c8 0 15.2 6.4 15.2 15.2v138.4zM384 624.8c0 8-6.4 15.2-15.2 15.2H232c-8 0-15.2-6.4-15.2-15.2v-138.4c0-8 6.4-15.2 15.2-15.2h136.8c8 0 15.2 6.4 15.2 15.2V624.8zM600.8 845.6c0 8-6.4 15.2-15.2 15.2h-136.8c-8 0-15.2-6.4-15.2-15.2v-138.4c0-8 6.4-15.2 15.2-15.2h136.8c8 0 15.2 6.4 15.2 15.2v138.4zM600.8 624.8c0 8-6.4 15.2-15.2 15.2h-136.8c-8 0-15.2-6.4-15.2-15.2v-138.4c0-8 6.4-15.2 15.2-15.2h136.8c8 0 15.2 6.4 15.2 15.2V624.8zM814.4 845.6c0 8-6.4 15.2-15.2 15.2h-136.8c-8 0-15.2-6.4-15.2-15.2v-138.4c0-8 6.4-15.2 15.2-15.2h136.8c8 0 15.2 6.4 15.2 15.2v138.4z" fill="#FCBE31" p-id="2136"></path></svg>